HIERARCHY
ROOT joint_Root
{
	OFFSET 0.0 0.0 0.0
	CHANNELS 6 Xposition Yposition Zposition Zrotation Xrotation Yrotation 
	JOINT Hips
	{
		OFFSET -0.726466 93.3139 -2.00062
		CHANNELS 6 Xposition Yposition Zposition Zrotation Xrotation Yrotation 
		JOINT Spine
		{
			OFFSET 15.7357 0.0 0.0
			CHANNELS 6 Xposition Yposition Zposition Zrotation Xrotation Yrotation 
			JOINT Chest
			{
				OFFSET 8.98455 -0.406207 0.0
				CHANNELS 6 Xposition Yposition Zposition Zrotation Xrotation Yrotation 
				JOINT Neck
				{
					OFFSET 16.3773 0.0 0.0
					CHANNELS 6 Xposition Yposition Zposition Zrotation Xrotation Yrotation 
					JOINT Head
					{
						OFFSET 6.45672 0.0 0.0
						CHANNELS 6 Xposition Yposition Zposition Zrotation Xrotation Yrotation 
						End Site
						{
							OFFSET 0.0 0.0 0.0
						}
					}
				}
				JOINT Shoulder_L
				{
					OFFSET 12.9942 -0.242716 4.98039
					CHANNELS 6 Xposition Yposition Zposition Zrotation Xrotation Yrotation 
					JOINT UpperArm_L
					{
						OFFSET 5.34809 0.0 0.0
						CHANNELS 6 Xposition Yposition Zposition Zrotation Xrotation Yrotation 
						JOINT LowerArm_L
						{
							OFFSET 24.3286 1.87007e-05 0.0
							CHANNELS 6 Xposition Yposition Zposition Zrotation Xrotation Yrotation 
							JOINT Hand_L
							{
								OFFSET 22.2916 0.0 0.0
								CHANNELS 6 Xposition Yposition Zposition Zrotation Xrotation Yrotation 
								End Site
								{
									OFFSET 0.0 0.0 0.0
								}
							}
						}
					}
				}
				JOINT Shoulder_R
				{
					OFFSET 12.9945 -0.242716 -4.98039
					CHANNELS 6 Xposition Yposition Zposition Zrotation Xrotation Yrotation 
					JOINT UpperArm_R
					{
						OFFSET -5.34813 0.0 0.0
						CHANNELS 6 Xposition Yposition Zposition Zrotation Xrotation Yrotation 
						JOINT LowerArm_R
						{
							OFFSET -24.3289 0.000322201 0.0
							CHANNELS 6 Xposition Yposition Zposition Zrotation Xrotation Yrotation 
							JOINT Hand_R
							{
								OFFSET -22.2915 -0.000108084 0.0
								CHANNELS 6 Xposition Yposition Zposition Zrotation Xrotation Yrotation 
								End Site
								{
									OFFSET 0.0 0.0 0.0
								}
							}
						}
					}
				}
			}
		}
		JOINT UpperLeg_L
		{
			OFFSET -2.19248 -6.46944 0.0
			CHANNELS 6 Xposition Yposition Zposition Zrotation Xrotation Yrotation 
			JOINT LowerLeg_L
			{
				OFFSET 39.0811 0.0 -1.23785e-05
				CHANNELS 6 Xposition Yposition Zposition Zrotation Xrotation Yrotation 
				JOINT Foot_L
				{
					OFFSET 40.9854 0.0 -1.26872e-05
					CHANNELS 6 Xposition Yposition Zposition Zrotation Xrotation Yrotation 
					JOINT Toes_L
					{
						OFFSET 11.7543 0.0 0.0
						CHANNELS 6 Xposition Yposition Zposition Zrotation Xrotation Yrotation 
						End Site
						{
							OFFSET 0.0 0.0 0.0
						}
					}
				}
			}
		}
		JOINT UpperLeg_R
		{
			OFFSET -2.19251 6.46944 0.0
			CHANNELS 6 Xposition Yposition Zposition Zrotation Xrotation Yrotation 
			JOINT LowerLeg_R
			{
				OFFSET -39.0811 -0.00228153 -0.0401928
				CHANNELS 6 Xposition Yposition Zposition Zrotation Xrotation Yrotation 
				JOINT Foot_R
				{
					OFFSET -40.9854 0.0 0.0
					CHANNELS 6 Xposition Yposition Zposition Zrotation Xrotation Yrotation 
					JOINT Toes_R
					{
						OFFSET -11.7543 0.0 0.0
						CHANNELS 6 Xposition Yposition Zposition Zrotation Xrotation Yrotation 
						End Site
						{
							OFFSET 0.0 0.0 0.0
						}
					}
				}
			}
		}
	}
}
MOTION
Frames:	4
Frame Time:	0.0333333
0.000000 0.000000 0.000000 0.000000 0.000000 -0.000000 -0.354069 91.815300 -1.528470 87.406400 -2.979110 3.850520 15.735700 0.000005 -0.000001 81.441100 84.186200 -80.697200 8.984550 -0.406207 -0.000000 3.745300 -1.754250 1.543730 16.377300 -0.000001 -0.000001 4.365700 -0.676693 1.100360 6.456720 -0.000001 -0.000000 2.357190 -0.096662 -2.216090 12.994200 -0.242716 4.980390 -90.077100 0.220808 -70.752700 5.348090 -0.000007 -0.000001 -64.843600 35.376500 -14.409900 24.328600 0.000019 0.000005 5.751560 9.230540 -32.124600 22.291600 -0.000001 0.000005 3.472230 5.643520 -14.422200 12.994500 -0.242716 -4.980390 88.278600 5.033910 -71.093900 -5.348130 -0.000001 -0.000004 -56.136000 34.169200 -18.554600 -24.328900 0.000322 -0.000009 1.991750 3.409460 -30.332100 -22.291500 -0.000108 -0.000004 6.278350 5.647600 -14.789500 -2.192480 -6.469440 -0.000000 -170.341000 -17.875200 -4.632130 39.081100 -0.000007 -0.000012 -0.165257 0.340858 25.865500 40.985400 -0.000006 -0.000013 -5.123710 -1.532940 -65.606700 11.754300 -0.000000 0.000003 -0.000068 -0.000744 -16.606300 -2.192510 6.469440 -0.000001 175.953000 22.010200 176.310000 -39.081100 -0.002282 -0.040193 0.043648 -0.091139 23.872100 -40.985400 0.000008 0.000006 0.560270 3.117850 -64.300900 -11.754300 -0.000006 -0.000006 -0.005439 -0.065651 -19.244600
0.000000 0.000000 0.000000 0.000000 0.000000 -0.000000 -0.382646 91.814000 -1.563310 87.390500 -2.852810 3.881750 15.735700 0.000005 -0.000001 81.587100 84.186400 -80.813800 8.984550 -0.406207 -0.000000 3.749670 -1.725960 1.601560 16.377300 -0.000001 -0.000001 4.256030 -0.835466 1.149830 6.456720 -0.000001 -0.000000 2.310550 -0.289055 -2.162860 12.994200 -0.242716 4.980390 -90.134500 0.386230 -70.803000 5.348090 -0.000007 -0.000001 -62.748700 34.497700 -16.054500 24.328600 0.000019 0.000005 6.461810 10.036300 -33.019200 22.291600 -0.000001 0.000005 4.193310 5.650080 -15.021100 12.994500 -0.242716 -4.980390 88.382600 4.719690 -71.059300 -5.348130 -0.000001 -0.000004 -55.131400 36.486500 -18.517500 -24.328900 0.000322 -0.000009 1.772570 2.840990 -31.999600 -22.291500 -0.000108 -0.000004 6.933820 5.649690 -14.980400 -2.192480 -6.469440 -0.000000 -170.327000 -17.772300 -4.686870 39.081100 -0.000007 -0.000012 -0.165249 0.340257 25.904100 40.985400 -0.000006 -0.000013 -5.120480 -1.522550 -65.576100 11.754300 -0.000000 0.000003 -0.000082 -0.000867 -16.611000 -2.192510 6.469440 -0.000001 175.978000 22.055400 176.329000 -39.081100 -0.002282 -0.040193 0.044095 -0.092116 23.879400 -40.985400 0.000008 0.000006 0.591598 3.041780 -64.309300 -11.754300 -0.000006 -0.000006 -0.005484 -0.066072 -19.261800
0.000000 0.000000 0.000000 0.000000 0.000000 -0.000000 -0.421809 91.814400 -1.607950 87.371400 -2.641830 3.933420 15.735700 0.000005 -0.000001 81.856700 84.189300 -81.041400 8.984550 -0.406207 -0.000000 3.751960 -1.672510 1.683760 16.377300 -0.000001 -0.000001 4.167320 -0.976532 1.139270 6.456720 -0.000001 -0.000000 2.200500 -0.548704 -2.106630 12.994200 -0.242716 4.980390 -90.150900 0.433149 -70.792400 5.348090 -0.000007 -0.000001 -60.209800 32.467500 -18.224100 24.328600 0.000019 0.000005 6.524830 9.622980 -34.381300 22.291600 -0.000001 0.000005 5.185580 5.654710 -15.475400 12.994500 -0.242716 -4.980390 88.524800 4.300910 -71.048200 -5.348130 -0.000001 -0.000004 -53.322700 39.961900 -18.454000 -24.328900 0.000322 -0.000009 1.660080 2.377490 -34.954300 -22.291500 -0.000108 -0.000004 8.485810 5.654920 -15.486300 -2.192480 -6.469440 -0.000000 -170.271000 -17.632100 -4.705100 39.081100 -0.000007 -0.000012 -0.166186 0.342154 25.906300 40.985400 -0.000006 -0.000013 -5.119130 -1.392220 -65.522100 11.754300 -0.000000 0.000003 -0.000072 -0.000779 -16.607600 -2.192510 6.469440 -0.000001 176.009000 22.148000 176.350000 -39.081100 -0.002282 -0.040193 0.044143 -0.091965 23.939400 -40.985400 0.000008 0.000006 0.527392 2.926410 -64.268700 -11.754300 -0.000006 -0.000006 -0.005851 -0.069473 -19.400400
0.000000 0.000000 0.000000 0.000000 0.000000 -0.000000 -0.480428 91.807700 -1.658730 87.366200 -2.342530 3.972500 15.735700 0.000005 -0.000001 82.007500 84.196000 -81.144400 8.984550 -0.406207 -0.000000 3.743430 -1.642150 1.778050 16.377300 -0.000001 -0.000001 4.088290 -1.063160 1.062040 6.456720 -0.000001 -0.000000 2.057480 -0.728342 -1.992340 12.994200 -0.242716 4.980390 -90.133000 0.381380 -70.774700 5.348090 -0.000007 -0.000001 -57.180900 29.572000 -20.899600 24.328600 0.000019 0.000005 6.485170 8.899320 -36.308900 22.291600 -0.000001 0.000005 6.174670 5.658570 -15.887600 12.994500 -0.242716 -4.980390 88.663000 3.890310 -71.016200 -5.348130 -0.000001 -0.000004 -50.744500 43.909600 -18.398700 -24.328900 0.000322 -0.000009 2.125060 2.594000 -39.353900 -22.291500 -0.000108 -0.000004 9.249660 5.659140 -15.954900 -2.192480 -6.469440 -0.000000 -170.252000 -17.530000 -4.817570 39.081100 -0.000007 -0.000012 -0.162866 0.334283 25.976100 40.985400 -0.000006 -0.000013 -5.095600 -1.247330 -65.461200 11.754300 -0.000000 0.000003 -0.000077 -0.000823 -16.609300 -2.192510 6.469440 -0.000001 176.045000 22.293400 176.377000 -39.081100 -0.002282 -0.040193 0.044504 -0.092636 23.972300 -40.985400 0.000008 0.000006 0.592539 2.769990 -64.340600 -11.754300 -0.000006 -0.000006 -0.005498 -0.066206 -19.267200
